# xmcd
#
# Track frame offsets:
#	182
#	11763
#	23637
#	36072
#	47622
#	60366
#	72051
#	84697
#	97735
#	109863
#	122122
#	134118
#	146495
#	159497
#	171678
#	182995
#	195038
#	205776
#	218359
#	230625
#	242495
#	256417
#	269324
#	283013
# Disc length: 3955 seconds
# Revision: 1
# Processed by: cddbd v1.5.1PL2 Copyright (c) Steve Scherf et al.
#
# Submitted via: libkcddb 0.21
#
DISCID=500f7118
DTITLE=Lightnin' Hopkins - The Chronological Lightnin' Hopkins 1948-1949
DYEAR=2002
DGENRE=
TTITLE0=Mercy
TTITLE1=What Can It Be
TTITLE2=Lonesome Home
TTITLE3=Appetite Blues
TTITLE4=Walking Blues
TTITLE5=Lightning Blues
TTITLE6=No Mail Blues
TTITLE7=Ain't It A Shame
TTITLE8=Tim Moore's Farm (Tom Moore Blues)
TTITLE9=You Don't Know
TTITLE10=Treat Me Kind
TTITLE11=Somebody's Got To Go
TTITLE12=Baby Please Don't Go
TTITLE13=Death Bells
TTITLE14=Mad With You
TTITLE15=Airplane Blues
TTITLE16=Unsuccessfull Blues (Can't Be Successfull)
TTITLE17=Rollin' Woman Blues
TTITLE18=Jailhouse Blues
TTITLE19="T" Model Blues
TTITLE20=Travellers Blues
TTITLE21=Lightnin' Boogie (Lightnin' Blues) (Mad Man Boogie)
TTITLE22=Unkind Blues
TTITLE23=Trying To Find A Friend
EXTD=Classic Records (France)  - Blues and Rhythm Series - Record no. 5045 - Blues Singing With Guitar Accompaniment
EXTT0=
EXTT1=
EXTT2=
EXTT3=
EXTT4=
EXTT5=
EXTT6=
EXTT7=
EXTT8=
EXTT9=
EXTT10=
EXTT11=
EXTT12=
EXTT13=
EXTT14=
EXTT15=
EXTT16=
EXTT17=
EXTT18=
EXTT19=
EXTT20=
EXTT21=
EXTT22=
EXTT23=
PLAYORDER=
